<svg width="247" height="40" viewBox="0 0 247 40" fill="none" xmlns="http://www.w3.org/2000/svg">
<path d="M92.3573 31.1424L102.68 10.6212L105.802 10.663L115.89 31.1424H111.219C110.755 30.0122 109.948 27.7182 109.224 26.7922C109.007 26.5141 108.956 26.535 108.625 26.4964C105.77 26.1668 102.231 26.7391 99.3022 26.535L97.0275 31.1424H92.3573ZM107.088 22.5819L104.123 16.5163L101.159 22.5819H107.088Z" fill="#F1F4D2"/>
<path d="M50.6816 10.634L57.7776 25.2585L64.8736 10.634H69.5437L59.2212 31.1552L56.0993 31.1118L46.0115 10.634H50.6816Z" fill="#F1F4D2"/>
<path d="M96.4889 10.634V14.5566H88.4058V31.1423H84.2743V14.5566H76.1896V10.634H96.4889Z" fill="#F1F4D2"/>
<path d="M122.177 10.634V27.2181H135.83V31.1423H118.045V10.634H122.177Z" fill="#F1F4D2"/>
<path d="M74.9324 10.634H70.8009V31.1423H74.9324V10.634Z" fill="#F1F4D2"/>
<path d="M236.522 20.0225V20.1945C236.375 28.657 228.168 31.9896 220.687 29.7968C211.256 27.0333 211.2 13.2609 220.648 10.3817C228.08 8.11814 236.428 11.5841 236.522 20.0209V20.0225ZM223.466 11.8012C213.705 12.7947 212.996 25.6829 221.457 27.9979C227.964 29.7791 235.043 26.842 234.416 19.2685C233.932 13.4088 228.808 11.2578 223.466 11.8012Z" fill="#F1F4D2"/>
<path d="M188.436 30.0186H186.526L186.438 27.9496C181.017 31.8899 170.867 31.3336 167.994 24.5495C166.481 20.979 166.883 16.1899 169.519 13.2223C173.953 8.23387 184.983 8.61327 188.436 14.6804L186.61 15.5228C182.94 10.0601 171.859 10.3656 169.64 16.96C166.378 26.6603 177.779 31.6343 184.777 26.6442C185.02 26.4706 186.528 25.0607 186.528 24.9353V21.7475H180.106V19.8521H188.438V30.0202L188.436 30.0186Z" fill="#F1F4D2"/>
<path d="M205.535 10.2C207.718 10.4926 209.644 12.1436 210.088 14.2978C210.978 18.6255 207.855 20.6495 203.887 20.7974L210.657 30.017L208.228 29.9318L201.369 20.7138H194.86V30.0203H192.95V10.2016H205.536L205.535 10.2ZM194.859 18.8168H205.188C205.257 18.8168 206.347 18.4583 206.493 18.3892C208.834 17.2687 208.785 13.8412 206.583 12.6066C206.424 12.5182 205.427 12.0954 205.361 12.0954H194.859V18.8168Z" fill="#F1F4D2"/>
<path d="M155.946 10.2289L165.695 30.017L163.349 29.8482L160.853 24.6106L148.973 24.4965L146.344 29.8514L143.995 30.017L153.744 10.2289H155.945H155.946ZM159.793 22.6076L154.847 12.6162L149.899 22.6076H159.793Z" fill="#F1F4D2"/>
<path d="M38.5506 21.4308L37.5619 17.333L27.2266 20.1206L34.5557 12.224L31.6877 9.36406L23.9824 16.9857L26.7989 6.54752L22.6819 5.42059C22.3764 6.64559 22.005 7.86416 21.7141 9.06505C21.3057 10.7466 19.7721 15.9279 19.6853 15.9022L17.0295 5.42059L12.9092 6.54913L15.7257 16.9874L8.02205 9.36728L5.0978 12.314L12.5089 20.1286L2.14462 17.333L1.15594 21.4308L11.4254 24.1059L1 27.0848L2.00637 30.7694C2.01119 30.9286 2.04173 31.0829 2.12372 31.2003L2.13015 31.2212C2.13015 31.2212 2.13658 31.2195 2.13819 31.2195C2.18803 31.2822 2.25233 31.3337 2.33914 31.3674L2.38415 31.3851H2.43238C10.4785 31.1681 17.6581 32.533 23.7863 35.4427C24.6721 35.2788 25.5852 35.1341 26.5192 35.0103C22.4841 32.6728 16.9973 30.8739 11.7228 30.1746C11.2148 30.1071 8.87408 29.8916 6.7247 29.7566C6.58966 29.7486 6.45784 29.7405 6.32763 29.7325C7.0607 29.4013 7.77608 29.0332 8.47378 28.6377C14.7804 29.1698 22.1128 30.7469 28.5062 34.6309C28.5625 34.6646 28.6348 34.7129 28.7184 34.7692C29.6766 34.6791 30.6154 34.6164 31.5269 34.5794C31.2424 34.3592 30.9611 34.1358 30.9434 34.1052C30.9305 34.0956 30.8855 34.0602 30.8357 34.0216H30.8405C30.8308 34.0152 30.8212 34.0087 30.8116 34.0039C30.7553 33.9605 30.7006 33.9155 30.6862 33.8978C30.6508 33.8737 30.6154 33.8512 30.5801 33.8271C30.5801 33.8271 30.5801 33.8271 30.5784 33.8271C30.5624 33.8158 30.5463 33.8062 30.5318 33.7949C30.2489 33.6036 29.9675 33.4107 29.6814 33.2258C29.6814 33.2258 29.6782 33.2242 29.6766 33.2226C29.6235 33.1889 29.5705 33.1551 29.5174 33.1229C29.4451 33.0779 29.3711 33.0345 29.2972 32.9927C29.249 32.9654 29.1991 32.9413 29.1493 32.9156C29.1461 32.9156 29.1445 32.9124 29.1412 32.9124C29.1219 32.9059 29.1043 32.8979 29.085 32.8931C29.04 32.8786 29.0014 32.8593 28.9676 32.8368L27.6317 32.1407C30.6588 31.6343 33.8596 31.3932 37.1777 31.4237H37.234L37.2854 31.4028C37.3931 31.3594 37.4703 31.2919 37.5233 31.2099C37.5378 31.2131 37.5507 31.2179 37.5651 31.2212L38.5136 27.0848L28.3005 24.1075L38.5538 21.4356L38.5506 21.4308ZM32.8516 29.7888C30.7054 29.9608 28.3664 30.218 27.86 30.2936C26.8777 30.4415 25.8714 30.6312 24.8554 30.861C24.4599 30.7485 23.947 30.5363 23.5966 30.39C23.513 30.3643 23.4374 30.3225 23.3715 30.2694C23.3056 30.2373 23.2477 30.1939 23.1963 30.144C23.1915 30.1392 23.1883 30.136 23.1834 30.1312C25.7202 29.4158 28.4017 28.9158 31.2054 28.6265C31.9208 29.0316 32.6603 29.4045 33.4207 29.7438C33.2358 29.7582 33.0477 29.7727 32.8516 29.7872V29.7888ZM28.6381 26.9706C28.458 26.9931 28.3181 27.0108 28.2329 27.0237C25.5225 27.432 22.6931 28.1458 20.0164 29.0975C17.2899 28.2728 14.4573 27.6539 11.5781 27.2584C11.3144 27.2214 11.0492 27.1893 10.7855 27.1555C12.0073 26.2777 13.1519 25.2955 14.2049 24.2136C14.4509 23.9612 14.9203 23.3969 15.4637 22.7442C17.5375 20.254 18.5583 19.1207 19.1226 18.992C19.5792 18.8876 20.1 18.9406 20.5196 18.9824L20.6354 18.9937L20.7399 19.066C21.9874 20.029 23.0275 21.2797 24.0339 22.4886C24.7557 23.3567 25.5016 24.2538 26.307 25.0206C27.0369 25.7151 27.8166 26.3646 28.6381 26.969V26.9706Z" fill="#45703D"/>
<path d="M245.971 8.56509C245.936 7.9751 245.783 7.41725 245.516 6.89157C245.289 6.44626 244.992 6.0524 244.624 5.71158C244.127 5.2502 243.556 4.92385 242.905 4.73415C242.642 4.65699 242.372 4.60394 242.097 4.58465C242.044 4.58143 241.992 4.57339 241.941 4.56696H241.537C241.478 4.57178 241.417 4.57821 241.357 4.58304C240.705 4.6393 240.097 4.83704 239.536 5.17625C239.066 5.45919 238.666 5.81929 238.333 6.25656C237.957 6.75331 237.703 7.30473 237.568 7.9124C237.518 8.13586 237.486 8.36414 237.478 8.59403C237.478 8.60689 237.473 8.62136 237.472 8.63422V9.02808C237.478 9.08274 237.484 9.13901 237.489 9.19367C237.512 9.48786 237.57 9.77401 237.655 10.0553C237.796 10.5248 238.015 10.9556 238.308 11.3495C238.539 11.663 238.809 11.9395 239.118 12.179C239.526 12.4973 239.978 12.7336 240.471 12.8863C240.727 12.9651 240.987 13.0182 241.254 13.0487C241.552 13.0825 241.851 13.0857 242.148 13.0552C242.508 13.0198 242.859 12.9394 243.198 12.8124C243.743 12.6098 244.225 12.3092 244.648 11.9105C244.963 11.6131 245.227 11.2755 245.439 10.8977C245.645 10.5312 245.793 10.1438 245.883 9.73543C245.968 9.348 245.997 8.95735 245.974 8.56188L245.971 8.56509ZM241.674 12.4234C239.722 12.3976 238.119 10.8077 238.124 8.81266C238.128 6.83048 239.748 5.19393 241.78 5.22286C243.73 5.25019 245.315 6.83208 245.323 8.80141C245.341 10.8061 243.703 12.4507 241.674 12.4234Z" fill="#F1F4D2"/>
<path d="M243.246 8.97661C243.367 8.86568 243.463 8.74028 243.51 8.58113C243.587 8.31587 243.601 8.05062 243.547 7.77572C243.486 7.46866 243.319 7.24199 243.056 7.08926C242.782 6.93011 242.478 6.85938 242.159 6.85938C241.595 6.85938 241.032 6.85938 240.468 6.85938H240.418V10.7852H241.068V9.34796C241.086 9.34796 241.098 9.34475 241.111 9.34475C241.362 9.34475 241.614 9.34475 241.865 9.34475C241.905 9.34475 241.926 9.35921 241.947 9.39136C242.238 9.84953 242.529 10.3061 242.822 10.7627C242.83 10.7739 242.847 10.7868 242.86 10.7868C243.068 10.7868 243.275 10.7868 243.491 10.7868C243.171 10.2852 242.857 9.79166 242.542 9.29652C242.618 9.27562 242.687 9.25633 242.756 9.23704C242.938 9.1856 243.103 9.10682 243.243 8.97661H243.246ZM242.476 8.70331C242.262 8.77244 242.047 8.79977 241.822 8.79334C241.592 8.78691 241.362 8.79334 241.132 8.79334C241.113 8.79334 241.095 8.79334 241.071 8.79334V7.38507C241.081 7.38507 241.089 7.38185 241.097 7.38185C241.434 7.38185 241.774 7.37703 242.11 7.38989C242.257 7.39472 242.412 7.40114 242.545 7.48152C242.624 7.52975 242.701 7.57959 242.774 7.63746C242.859 7.70498 242.901 7.80305 242.917 7.90915C242.941 8.06509 242.941 8.22263 242.872 8.36892C242.791 8.53933 242.658 8.64705 242.475 8.70492L242.476 8.70331Z" fill="#F1F4D2"/>
</svg>
